<svg xmlns="http://www.w3.org/2000/svg" xmlns:xlink="http://www.w3.org/1999/xlink" width="500" zoomAndPan="magnify" viewBox="0 0 375 374.999991" height="500" preserveAspectRatio="xMidYMid meet" version="1.0"><defs><clipPath id="752261e4a3"><path d="M 1.09375 1.09375 L 375 1.09375 L 375 375 L 1.09375 375 Z M 1.09375 1.09375 " clip-rule="nonzero"/></clipPath><clipPath id="c029d71208"><path d="M 188.046875 1.09375 C 84.796875 1.09375 1.09375 84.796875 1.09375 188.046875 C 1.09375 291.296875 84.796875 375 188.046875 375 C 291.296875 375 375 291.296875 375 188.046875 C 375 84.796875 291.296875 1.09375 188.046875 1.09375 Z M 188.046875 1.09375 " clip-rule="nonzero"/></clipPath><clipPath id="1bf2c7f4eb"><path d="M 29.957031 29.957031 L 344.957031 29.957031 L 344.957031 344.957031 L 29.957031 344.957031 Z M 29.957031 29.957031 " clip-rule="nonzero"/></clipPath></defs><g clip-path="url(#752261e4a3)"><g clip-path="url(#c029d71208)"><path fill="#000000" d="M 1.09375 1.09375 L 375 1.09375 L 375 375 L 1.09375 375 Z M 1.09375 1.09375 " fill-opacity="1" fill-rule="nonzero"/></g></g><g clip-path="url(#1bf2c7f4eb)"><path fill="#ffffff" d="M 187.425781 61.011719 C 192.371094 61.011719 196.800781 58.695312 199.632812 55.089844 C 201.746094 52.464844 202.980469 49.117188 202.980469 45.511719 C 202.980469 40.773438 200.867188 36.523438 197.46875 33.691406 C 194.765625 31.371094 191.238281 29.957031 187.425781 29.957031 C 183.613281 29.957031 180.085938 31.347656 177.382812 33.691406 C 174.035156 36.523438 171.921875 40.773438 171.921875 45.511719 C 171.921875 49.117188 173.160156 52.464844 175.21875 55.089844 C 178.050781 58.695312 182.457031 61.011719 187.425781 61.011719 Z M 87.1875 96.492188 L 70.773438 82.96875 C 92.828125 58.453125 122.125 41.410156 154.253906 34.378906 L 157.730469 55.402344 C 130.652344 61.53125 105.941406 75.90625 87.210938 96.492188 Z M 87.191406 278.394531 L 70.773438 291.921875 C 92.808594 316.433594 122.113281 333.472656 154.25 340.507812 L 157.730469 319.484375 C 130.644531 313.355469 105.925781 298.980469 87.191406 278.394531 Z M 217.1875 319.484375 L 220.667969 340.507812 C 252.808594 333.449219 282.113281 316.433594 304.148438 291.921875 L 287.703125 278.394531 C 269.019531 298.980469 244.304688 313.332031 217.1875 319.484375 Z M 187.421875 313.90625 C 191.441406 313.90625 195.125 315.453125 197.878906 318.027344 L 197.90625 318.027344 C 201.019531 320.859375 202.976562 324.929688 202.976562 329.460938 C 202.976562 333.144531 201.714844 336.515625 199.5 339.195312 C 196.667969 342.722656 192.292969 344.960938 187.421875 344.960938 C 182.558594 344.960938 178.179688 342.722656 175.347656 339.195312 C 173.183594 336.542969 171.921875 333.144531 171.921875 329.460938 C 171.921875 324.929688 173.878906 320.859375 176.96875 318.027344 C 179.75 315.425781 183.40625 313.90625 187.421875 313.90625 Z M 220.667969 34.378906 L 217.1875 55.402344 C 244.304688 61.554688 269.019531 75.90625 287.703125 96.492188 L 304.148438 82.96875 C 282.113281 58.453125 252.808594 41.4375 220.667969 34.378906 Z M 337.515625 235.820312 L 317.648438 228.355469 C 325.867188 201.746094 325.867188 173.125 317.445312 146.621094 L 337.335938 139.101562 C 347.433594 170.464844 347.484375 204.40625 337.515625 235.820312 Z M 324.78125 247.910156 C 322.023438 245.332031 318.34375 243.789062 314.324219 243.789062 C 310.308594 243.789062 306.652344 245.308594 303.871094 247.910156 C 300.78125 250.742188 298.824219 254.808594 298.824219 259.34375 C 298.824219 263.023438 300.085938 266.421875 302.25 269.078125 C 305.082031 272.605469 309.457031 274.84375 314.324219 274.84375 C 319.191406 274.84375 323.570312 272.605469 326.402344 269.078125 C 328.617188 266.398438 329.878906 263.023438 329.878906 259.34375 C 329.878906 254.808594 327.921875 250.742188 324.804688 247.910156 Z M 314.328125 100.054688 C 318.34375 100.054688 322.027344 101.601562 324.785156 104.175781 L 324.808594 104.175781 C 327.925781 107.007812 329.882812 111.074219 329.882812 115.609375 C 329.882812 119.289062 328.621094 122.664062 326.40625 125.34375 C 323.574219 128.871094 319.195312 131.109375 314.328125 131.109375 C 309.460938 131.109375 305.082031 128.871094 302.25 125.34375 C 300.085938 122.691406 298.824219 119.289062 298.824219 115.609375 C 298.824219 111.074219 300.78125 107.007812 303.875 104.175781 C 306.652344 101.574219 310.3125 100.054688 314.328125 100.054688 Z M 57.257812 228.355469 L 37.394531 235.820312 C 27.421875 204.40625 27.472656 170.464844 37.574219 139.101562 L 57.464844 146.621094 C 49.039062 173.125 49.039062 201.746094 57.257812 228.355469 Z M 60.542969 243.789062 C 64.558594 243.789062 68.242188 245.332031 70.996094 247.910156 L 71.023438 247.910156 C 74.136719 250.742188 76.09375 254.808594 76.09375 259.34375 C 76.09375 263.023438 74.832031 266.398438 72.617188 269.078125 C 69.785156 272.605469 65.410156 274.84375 60.542969 274.84375 C 55.675781 274.84375 51.296875 272.605469 48.464844 269.078125 C 46.300781 266.421875 45.039062 263.023438 45.039062 259.34375 C 45.039062 254.808594 46.996094 250.742188 50.085938 247.910156 C 52.867188 245.308594 56.523438 243.789062 60.542969 243.789062 Z M 70.996094 104.175781 C 68.238281 101.601562 64.558594 100.054688 60.539062 100.054688 C 56.523438 100.054688 52.867188 101.574219 50.085938 104.175781 C 46.996094 107.007812 45.039062 111.074219 45.039062 115.609375 C 45.039062 119.289062 46.300781 122.691406 48.464844 125.34375 C 51.296875 128.871094 55.671875 131.109375 60.539062 131.109375 C 65.40625 131.109375 69.785156 128.871094 72.617188 125.34375 C 74.832031 122.664062 76.09375 119.289062 76.09375 115.609375 C 76.09375 111.074219 74.136719 107.007812 71.019531 104.175781 Z M 168.96875 200.714844 C 167.5 199.875 166.597656 198.316406 166.597656 196.636719 L 166.597656 178.277344 C 166.597656 176.59375 167.472656 175.039062 168.96875 174.195312 L 185.046875 165.015625 C 186.519531 164.175781 188.351562 164.175781 189.796875 165.015625 L 205.925781 174.195312 C 207.371094 175.039062 208.300781 176.59375 208.300781 178.277344 L 208.300781 196.636719 C 208.300781 198.316406 207.371094 199.875 205.925781 200.714844 L 189.796875 209.894531 C 188.351562 210.734375 186.542969 210.734375 185.046875 209.894531 Z M 197.878906 257.253906 C 195.125 254.675781 191.441406 253.132812 187.421875 253.132812 C 183.40625 253.132812 179.75 254.652344 176.96875 257.253906 C 173.878906 260.085938 171.921875 264.152344 171.921875 268.6875 C 171.921875 272.367188 173.183594 275.769531 175.347656 278.421875 C 178.179688 281.949219 182.558594 284.1875 187.421875 284.1875 C 192.292969 284.1875 196.667969 281.949219 199.5 278.421875 C 201.714844 275.742188 202.976562 272.367188 202.976562 268.6875 C 202.976562 264.152344 201.019531 260.085938 197.90625 257.253906 Z M 187.421875 90.730469 C 192.292969 90.730469 196.667969 92.972656 199.5 96.527344 C 201.714844 99.183594 202.976562 102.585938 202.976562 106.269531 C 202.976562 110.753906 201.019531 114.828125 197.929688 117.664062 C 195.175781 120.214844 191.492188 121.785156 187.421875 121.785156 C 183.355469 121.785156 179.722656 120.214844 176.917969 117.664062 C 173.828125 114.828125 171.921875 110.753906 171.921875 106.269531 C 171.921875 102.585938 173.183594 99.210938 175.347656 96.527344 C 178.179688 92.972656 182.558594 90.730469 187.421875 90.730469 Z M 226.34375 104.054688 L 218.949219 123.824219 C 270.382812 149.722656 270.355469 225.226562 218.949219 251.101562 L 226.34375 270.871094 C 295.777344 237.945312 295.726562 136.929688 226.34375 104.054688 Z M 155.957031 123.824219 L 148.5625 104.054688 C 79.179688 136.929688 79.128906 237.945312 148.5625 270.871094 L 155.957031 251.101562 C 104.550781 225.226562 104.523438 149.722656 155.957031 123.824219 Z M 155.957031 123.824219 " fill-opacity="1" fill-rule="evenodd"/></g></svg>