<svg xmlns="http://www.w3.org/2000/svg" xmlns:xlink="http://www.w3.org/1999/xlink" width="500" zoomAndPan="magnify" viewBox="0 0 375 374.999991" height="500" preserveAspectRatio="xMidYMid meet" version="1.0"><defs><g/><clipPath id="a0b72ca040"><path d="M 124.164062 37.5 L 250.363281 37.5 L 250.363281 312.578125 L 124.164062 312.578125 Z M 124.164062 37.5 " clip-rule="nonzero"/></clipPath><clipPath id="1054e5c2d3"><path d="M 250.363281 90.75 L 250.363281 259.171875 C 250.363281 273.296875 244.753906 286.839844 234.769531 296.828125 C 224.78125 306.8125 211.238281 312.421875 197.113281 312.421875 L 177.414062 312.421875 C 163.292969 312.421875 149.746094 306.8125 139.761719 296.828125 C 129.773438 286.839844 124.164062 273.296875 124.164062 259.171875 L 124.164062 90.75 C 124.164062 76.628906 129.773438 63.082031 139.761719 53.097656 C 149.746094 43.109375 163.292969 37.5 177.414062 37.5 L 197.113281 37.5 C 211.238281 37.5 224.78125 43.109375 234.769531 53.097656 C 244.753906 63.082031 250.363281 76.628906 250.363281 90.75 Z M 250.363281 90.75 " clip-rule="nonzero"/></clipPath><clipPath id="679dd2fe76"><path d="M 124.363281 37.5 L 250.363281 37.5 L 250.363281 312.75 L 124.363281 312.75 Z M 124.363281 37.5 " clip-rule="nonzero"/></clipPath><clipPath id="6a9d06dd1a"><path d="M 250.363281 90.75 L 250.363281 259.171875 C 250.363281 273.292969 244.753906 286.839844 234.769531 296.824219 C 224.78125 306.8125 211.238281 312.421875 197.113281 312.421875 L 177.414062 312.421875 C 163.292969 312.421875 149.746094 306.8125 139.761719 296.824219 C 129.777344 286.839844 124.164062 273.292969 124.164062 259.171875 L 124.164062 90.75 C 124.164062 76.628906 129.777344 63.082031 139.761719 53.097656 C 149.746094 43.109375 163.292969 37.5 177.414062 37.5 L 197.113281 37.5 C 211.238281 37.5 224.78125 43.109375 234.769531 53.097656 C 244.753906 63.082031 250.363281 76.628906 250.363281 90.75 Z M 250.363281 90.75 " clip-rule="nonzero"/></clipPath><clipPath id="a1f3364d94"><path d="M 130.773438 44.574219 L 243.019531 44.574219 L 243.019531 305.453125 L 130.773438 305.453125 Z M 130.773438 44.574219 " clip-rule="nonzero"/></clipPath><clipPath id="f0dfb3a0d1"><path d="M 243.019531 97.824219 L 243.019531 252.292969 C 243.019531 266.414062 237.410156 279.960938 227.421875 289.945312 C 217.4375 299.933594 203.890625 305.542969 189.769531 305.542969 L 184.023438 305.542969 C 169.902344 305.542969 156.359375 299.933594 146.371094 289.945312 C 136.386719 279.960938 130.773438 266.414062 130.773438 252.292969 L 130.773438 97.824219 C 130.773438 83.703125 136.386719 70.160156 146.371094 60.171875 C 156.359375 50.1875 169.902344 44.574219 184.023438 44.574219 L 189.769531 44.574219 C 203.890625 44.574219 217.4375 50.1875 227.421875 60.171875 C 237.410156 70.160156 243.019531 83.703125 243.019531 97.824219 Z M 243.019531 97.824219 " clip-rule="nonzero"/></clipPath><linearGradient x1="0.00625049" gradientTransform="matrix(0, 0.438452, -0.438452, 0, 243.018479, 44.572759)" y1="128" x2="595.006323" gradientUnits="userSpaceOnUse" y2="128" id="0a45662b22"><stop stop-opacity="1" stop-color="rgb(0%, 0%, 0%)" offset="0"/><stop stop-opacity="1" stop-color="rgb(0.175476%, 0.175476%, 0.175476%)" offset="0.0078125"/><stop stop-opacity="1" stop-color="rgb(0.527954%, 0.527954%, 0.527954%)" offset="0.015625"/><stop stop-opacity="1" stop-color="rgb(0.878906%, 0.878906%, 0.878906%)" offset="0.0234375"/><stop stop-opacity="1" stop-color="rgb(1.231384%, 1.231384%, 1.231384%)" offset="0.03125"/><stop stop-opacity="1" stop-color="rgb(1.583862%, 1.583862%, 1.583862%)" offset="0.0390625"/><stop stop-opacity="1" stop-color="rgb(1.93634%, 1.93634%, 1.93634%)" offset="0.046875"/><stop stop-opacity="1" stop-color="rgb(2.288818%, 2.288818%, 2.288818%)" offset="0.0546875"/><stop stop-opacity="1" stop-color="rgb(2.641296%, 2.641296%, 2.641296%)" offset="0.0625"/><stop stop-opacity="1" stop-color="rgb(2.992249%, 2.992249%, 2.992249%)" offset="0.0703125"/><stop stop-opacity="1" stop-color="rgb(3.344727%, 3.344727%, 3.344727%)" offset="0.078125"/><stop stop-opacity="1" stop-color="rgb(3.697205%, 3.697205%, 3.697205%)" offset="0.0859375"/><stop stop-opacity="1" stop-color="rgb(4.049683%, 4.049683%, 4.049683%)" offset="0.09375"/><stop stop-opacity="1" stop-color="rgb(4.402161%, 4.402161%, 4.402161%)" offset="0.101563"/><stop stop-opacity="1" stop-color="rgb(4.754639%, 4.754639%, 4.754639%)" offset="0.109375"/><stop stop-opacity="1" stop-color="rgb(5.105591%, 5.105591%, 5.105591%)" offset="0.117188"/><stop stop-opacity="1" stop-color="rgb(5.458069%, 5.458069%, 5.458069%)" offset="0.125"/><stop stop-opacity="1" stop-color="rgb(5.810547%, 5.810547%, 5.810547%)" offset="0.132813"/><stop stop-opacity="1" stop-color="rgb(6.163025%, 6.163025%, 6.163025%)" offset="0.140625"/><stop stop-opacity="1" stop-color="rgb(6.515503%, 6.515503%, 6.515503%)" offset="0.148438"/><stop stop-opacity="1" stop-color="rgb(6.867981%, 6.867981%, 6.867981%)" offset="0.15625"/><stop stop-opacity="1" stop-color="rgb(7.218933%, 7.218933%, 7.218933%)" offset="0.164062"/><stop stop-opacity="1" stop-color="rgb(7.571411%, 7.571411%, 7.571411%)" offset="0.171875"/><stop stop-opacity="1" stop-color="rgb(7.923889%, 7.923889%, 7.923889%)" offset="0.179687"/><stop stop-opacity="1" stop-color="rgb(8.276367%, 8.276367%, 8.276367%)" offset="0.1875"/><stop stop-opacity="1" stop-color="rgb(8.628845%, 8.628845%, 8.628845%)" offset="0.195313"/><stop stop-opacity="1" stop-color="rgb(8.981323%, 8.981323%, 8.981323%)" offset="0.203125"/><stop stop-opacity="1" stop-color="rgb(9.333801%, 9.333801%, 9.333801%)" offset="0.210938"/><stop stop-opacity="1" stop-color="rgb(9.684753%, 9.684753%, 9.684753%)" offset="0.21875"/><stop stop-opacity="1" stop-color="rgb(10.037231%, 10.037231%, 10.037231%)" offset="0.226562"/><stop stop-opacity="1" stop-color="rgb(10.389709%, 10.389709%, 10.389709%)" offset="0.234375"/><stop stop-opacity="1" stop-color="rgb(10.742188%, 10.742188%, 10.742188%)" offset="0.242187"/><stop stop-opacity="1" stop-color="rgb(11.094666%, 11.094666%, 11.094666%)" offset="0.25"/><stop stop-opacity="1" stop-color="rgb(11.447144%, 11.447144%, 11.447144%)" offset="0.257813"/><stop stop-opacity="1" stop-color="rgb(11.798096%, 11.798096%, 11.798096%)" offset="0.265625"/><stop stop-opacity="1" stop-color="rgb(12.150574%, 12.150574%, 12.150574%)" offset="0.273438"/><stop stop-opacity="1" stop-color="rgb(12.503052%, 12.503052%, 12.503052%)" offset="0.28125"/><stop stop-opacity="1" stop-color="rgb(12.85553%, 12.85553%, 12.85553%)" offset="0.289062"/><stop stop-opacity="1" stop-color="rgb(13.208008%, 13.208008%, 13.208008%)" offset="0.296875"/><stop stop-opacity="1" stop-color="rgb(13.560486%, 13.560486%, 13.560486%)" offset="0.304688"/><stop stop-opacity="1" stop-color="rgb(13.911438%, 13.911438%, 13.911438%)" offset="0.3125"/><stop stop-opacity="1" stop-color="rgb(14.263916%, 14.263916%, 14.263916%)" offset="0.320313"/><stop stop-opacity="1" stop-color="rgb(14.616394%, 14.616394%, 14.616394%)" offset="0.328125"/><stop stop-opacity="1" stop-color="rgb(14.968872%, 14.968872%, 14.968872%)" offset="0.335938"/><stop stop-opacity="1" stop-color="rgb(15.32135%, 15.32135%, 15.32135%)" offset="0.34375"/><stop stop-opacity="1" stop-color="rgb(15.673828%, 15.673828%, 15.673828%)" offset="0.351563"/><stop stop-opacity="1" stop-color="rgb(16.02478%, 16.02478%, 16.02478%)" offset="0.359375"/><stop stop-opacity="1" stop-color="rgb(16.377258%, 16.377258%, 16.377258%)" offset="0.367188"/><stop stop-opacity="1" stop-color="rgb(16.729736%, 16.729736%, 16.729736%)" offset="0.375"/><stop stop-opacity="1" stop-color="rgb(17.082214%, 17.082214%, 17.082214%)" offset="0.382813"/><stop stop-opacity="1" stop-color="rgb(17.434692%, 17.434692%, 17.434692%)" offset="0.390625"/><stop stop-opacity="1" stop-color="rgb(17.78717%, 17.78717%, 17.78717%)" offset="0.398438"/><stop stop-opacity="1" stop-color="rgb(18.138123%, 18.138123%, 18.138123%)" offset="0.40625"/><stop stop-opacity="1" stop-color="rgb(18.490601%, 18.490601%, 18.490601%)" offset="0.414062"/><stop stop-opacity="1" stop-color="rgb(18.843079%, 18.843079%, 18.843079%)" offset="0.421875"/><stop stop-opacity="1" stop-color="rgb(19.195557%, 19.195557%, 19.195557%)" offset="0.429688"/><stop stop-opacity="1" stop-color="rgb(19.548035%, 19.548035%, 19.548035%)" offset="0.4375"/><stop stop-opacity="1" stop-color="rgb(19.900513%, 19.900513%, 19.900513%)" offset="0.445313"/><stop stop-opacity="1" stop-color="rgb(20.251465%, 20.251465%, 20.251465%)" offset="0.453125"/><stop stop-opacity="1" stop-color="rgb(20.603943%, 20.603943%, 20.603943%)" offset="0.460938"/><stop stop-opacity="1" stop-color="rgb(20.956421%, 20.956421%, 20.956421%)" offset="0.46875"/><stop stop-opacity="1" stop-color="rgb(21.308899%, 21.308899%, 21.308899%)" offset="0.476563"/><stop stop-opacity="1" stop-color="rgb(21.661377%, 21.661377%, 21.661377%)" offset="0.484375"/><stop stop-opacity="1" stop-color="rgb(22.013855%, 22.013855%, 22.013855%)" offset="0.492188"/><stop stop-opacity="1" stop-color="rgb(22.364807%, 22.364807%, 22.364807%)" offset="0.5"/><stop stop-opacity="1" stop-color="rgb(22.717285%, 22.717285%, 22.717285%)" offset="0.507812"/><stop stop-opacity="1" stop-color="rgb(23.069763%, 23.069763%, 23.069763%)" offset="0.515625"/><stop stop-opacity="1" stop-color="rgb(23.422241%, 23.422241%, 23.422241%)" offset="0.523438"/><stop stop-opacity="1" stop-color="rgb(23.774719%, 23.774719%, 23.774719%)" offset="0.53125"/><stop stop-opacity="1" stop-color="rgb(24.127197%, 24.127197%, 24.127197%)" offset="0.539062"/><stop stop-opacity="1" stop-color="rgb(24.478149%, 24.478149%, 24.478149%)" offset="0.546875"/><stop stop-opacity="1" stop-color="rgb(24.830627%, 24.830627%, 24.830627%)" offset="0.554688"/><stop stop-opacity="1" stop-color="rgb(25.183105%, 25.183105%, 25.183105%)" offset="0.5625"/><stop stop-opacity="1" stop-color="rgb(25.535583%, 25.535583%, 25.535583%)" offset="0.570312"/><stop stop-opacity="1" stop-color="rgb(25.888062%, 25.888062%, 25.888062%)" offset="0.578125"/><stop stop-opacity="1" stop-color="rgb(26.24054%, 26.24054%, 26.24054%)" offset="0.585937"/><stop stop-opacity="1" stop-color="rgb(26.591492%, 26.591492%, 26.591492%)" offset="0.59375"/><stop stop-opacity="1" stop-color="rgb(26.94397%, 26.94397%, 26.94397%)" offset="0.601562"/><stop stop-opacity="1" stop-color="rgb(27.296448%, 27.296448%, 27.296448%)" offset="0.609375"/><stop stop-opacity="1" stop-color="rgb(27.648926%, 27.648926%, 27.648926%)" offset="0.617188"/><stop stop-opacity="1" stop-color="rgb(28.001404%, 28.001404%, 28.001404%)" offset="0.625"/><stop stop-opacity="1" stop-color="rgb(28.353882%, 28.353882%, 28.353882%)" offset="0.632812"/><stop stop-opacity="1" stop-color="rgb(28.704834%, 28.704834%, 28.704834%)" offset="0.640625"/><stop stop-opacity="1" stop-color="rgb(29.057312%, 29.057312%, 29.057312%)" offset="0.648438"/><stop stop-opacity="1" stop-color="rgb(29.40979%, 29.40979%, 29.40979%)" offset="0.65625"/><stop stop-opacity="1" stop-color="rgb(29.762268%, 29.762268%, 29.762268%)" offset="0.664063"/><stop stop-opacity="1" stop-color="rgb(30.114746%, 30.114746%, 30.114746%)" offset="0.671875"/><stop stop-opacity="1" stop-color="rgb(30.467224%, 30.467224%, 30.467224%)" offset="0.679688"/><stop stop-opacity="1" stop-color="rgb(30.818176%, 30.818176%, 30.818176%)" offset="0.6875"/><stop stop-opacity="1" stop-color="rgb(31.170654%, 31.170654%, 31.170654%)" offset="0.695312"/><stop stop-opacity="1" stop-color="rgb(31.523132%, 31.523132%, 31.523132%)" offset="0.703125"/><stop stop-opacity="1" stop-color="rgb(31.87561%, 31.87561%, 31.87561%)" offset="0.710938"/><stop stop-opacity="1" stop-color="rgb(32.228088%, 32.228088%, 32.228088%)" offset="0.71875"/><stop stop-opacity="1" stop-color="rgb(32.580566%, 32.580566%, 32.580566%)" offset="0.726562"/><stop stop-opacity="1" stop-color="rgb(32.931519%, 32.931519%, 32.931519%)" offset="0.734375"/><stop stop-opacity="1" stop-color="rgb(33.283997%, 33.283997%, 33.283997%)" offset="0.742188"/><stop stop-opacity="1" stop-color="rgb(33.636475%, 33.636475%, 33.636475%)" offset="0.75"/><stop stop-opacity="1" stop-color="rgb(33.988953%, 33.988953%, 33.988953%)" offset="0.757812"/><stop stop-opacity="1" stop-color="rgb(34.341431%, 34.341431%, 34.341431%)" offset="0.765625"/><stop stop-opacity="1" stop-color="rgb(34.693909%, 34.693909%, 34.693909%)" offset="0.773438"/><stop stop-opacity="1" stop-color="rgb(35.044861%, 35.044861%, 35.044861%)" offset="0.78125"/><stop stop-opacity="1" stop-color="rgb(35.397339%, 35.397339%, 35.397339%)" offset="0.789062"/><stop stop-opacity="1" stop-color="rgb(35.749817%, 35.749817%, 35.749817%)" offset="0.796875"/><stop stop-opacity="1" stop-color="rgb(36.102295%, 36.102295%, 36.102295%)" offset="0.804688"/><stop stop-opacity="1" stop-color="rgb(36.454773%, 36.454773%, 36.454773%)" offset="0.8125"/><stop stop-opacity="1" stop-color="rgb(36.807251%, 36.807251%, 36.807251%)" offset="0.820312"/><stop stop-opacity="1" stop-color="rgb(37.158203%, 37.158203%, 37.158203%)" offset="0.828125"/><stop stop-opacity="1" stop-color="rgb(37.510681%, 37.510681%, 37.510681%)" offset="0.835937"/><stop stop-opacity="1" stop-color="rgb(37.863159%, 37.863159%, 37.863159%)" offset="0.84375"/><stop stop-opacity="1" stop-color="rgb(38.215637%, 38.215637%, 38.215637%)" offset="0.851562"/><stop stop-opacity="1" stop-color="rgb(38.568115%, 38.568115%, 38.568115%)" offset="0.859375"/><stop stop-opacity="1" stop-color="rgb(38.920593%, 38.920593%, 38.920593%)" offset="0.867188"/><stop stop-opacity="1" stop-color="rgb(39.271545%, 39.271545%, 39.271545%)" offset="0.875"/><stop stop-opacity="1" stop-color="rgb(39.624023%, 39.624023%, 39.624023%)" offset="0.882812"/><stop stop-opacity="1" stop-color="rgb(39.976501%, 39.976501%, 39.976501%)" offset="0.890625"/><stop stop-opacity="1" stop-color="rgb(40.328979%, 40.328979%, 40.328979%)" offset="0.898438"/><stop stop-opacity="1" stop-color="rgb(40.681458%, 40.681458%, 40.681458%)" offset="0.90625"/><stop stop-opacity="1" stop-color="rgb(41.033936%, 41.033936%, 41.033936%)" offset="0.914063"/><stop stop-opacity="1" stop-color="rgb(41.384888%, 41.384888%, 41.384888%)" offset="0.921875"/><stop stop-opacity="1" stop-color="rgb(41.737366%, 41.737366%, 41.737366%)" offset="0.929688"/><stop stop-opacity="1" stop-color="rgb(42.089844%, 42.089844%, 42.089844%)" offset="0.9375"/><stop stop-opacity="1" stop-color="rgb(42.442322%, 42.442322%, 42.442322%)" offset="0.945312"/><stop stop-opacity="1" stop-color="rgb(42.7948%, 42.7948%, 42.7948%)" offset="0.953125"/><stop stop-opacity="1" stop-color="rgb(43.147278%, 43.147278%, 43.147278%)" offset="0.960938"/><stop stop-opacity="1" stop-color="rgb(43.49823%, 43.49823%, 43.49823%)" offset="0.96875"/><stop stop-opacity="1" stop-color="rgb(43.850708%, 43.850708%, 43.850708%)" offset="0.976562"/><stop stop-opacity="1" stop-color="rgb(44.203186%, 44.203186%, 44.203186%)" offset="0.984375"/><stop stop-opacity="1" stop-color="rgb(44.555664%, 44.555664%, 44.555664%)" offset="0.992188"/><stop stop-opacity="1" stop-color="rgb(44.908142%, 44.908142%, 44.908142%)" offset="1"/></linearGradient><clipPath id="66a8ea685a"><path d="M 130.519531 44.578125 L 243.019531 44.578125 L 243.019531 305.539062 L 130.519531 305.539062 Z M 130.519531 44.578125 " clip-rule="nonzero"/></clipPath><clipPath id="6972f34b8a"><path d="M 243.019531 97.824219 L 243.019531 252.289062 C 243.019531 266.414062 237.410156 279.957031 227.421875 289.941406 C 217.4375 299.929688 203.890625 305.539062 189.769531 305.539062 L 184.027344 305.539062 C 169.902344 305.539062 156.359375 299.929688 146.371094 289.941406 C 136.386719 279.957031 130.777344 266.414062 130.777344 252.289062 L 130.777344 97.824219 C 130.777344 83.703125 136.386719 70.160156 146.371094 60.171875 C 156.359375 50.1875 169.902344 44.578125 184.027344 44.578125 L 189.769531 44.578125 C 203.890625 44.578125 217.4375 50.1875 227.421875 60.171875 C 237.410156 70.160156 243.019531 83.703125 243.019531 97.824219 Z M 243.019531 97.824219 " clip-rule="nonzero"/></clipPath></defs><g clip-path="url(#a0b72ca040)"><g clip-path="url(#1054e5c2d3)"><path fill="#ffffff" d="M 250.363281 37.5 L 250.363281 312.578125 L 124.164062 312.578125 L 124.164062 37.5 Z M 250.363281 37.5 " fill-opacity="1" fill-rule="nonzero"/></g></g><g clip-path="url(#679dd2fe76)"><g clip-path="url(#6a9d06dd1a)"><path stroke-linecap="butt" transform="matrix(0, 0.75, -0.75, 0, 250.364431, 37.500766)" fill="none" stroke-linejoin="miter" d="M 70.998983 0.00153335 L 295.561497 0.00153335 C 314.389624 0.00153335 332.452125 7.480701 345.764626 20.793201 C 359.082335 34.110911 366.561502 52.168203 366.561502 71.001538 L 366.561502 97.267165 C 366.561502 116.095291 359.082335 134.157792 345.764626 147.470293 C 332.452125 160.782794 314.389624 168.267169 295.561497 168.267169 L 70.998983 168.267169 C 52.170856 168.267169 34.108355 160.782794 20.795854 147.470293 C 7.478145 134.157792 -0.001022 116.095291 -0.001022 97.267165 L -0.001022 71.001538 C -0.001022 52.168203 7.478145 34.110911 20.795854 20.793201 C 34.108355 7.480701 52.170856 0.00153335 70.998983 0.00153335 Z M 70.998983 0.00153335 " stroke="#ffffff" stroke-width="22" stroke-opacity="1" stroke-miterlimit="4"/></g></g><g clip-path="url(#a1f3364d94)"><g clip-path="url(#f0dfb3a0d1)"><path fill="url(#0a45662b22)" d="M 243.019531 44.574219 L 130.773438 44.574219 L 130.773438 305.453125 L 243.019531 305.453125 Z M 243.019531 44.574219 " fill-rule="nonzero"/></g></g><g clip-path="url(#66a8ea685a)"><g clip-path="url(#6972f34b8a)"><path stroke-linecap="butt" transform="matrix(0, 0.75, -0.75, 0, 243.018476, 44.576383)" fill="none" stroke-linejoin="miter" d="M 70.997119 -0.00140734 L 276.950258 -0.00140734 C 295.783593 -0.00140734 313.840885 7.47776 327.153386 20.795469 C 340.471095 34.10797 347.950263 52.170471 347.950263 70.998597 L 347.950263 78.654848 C 347.950263 97.488182 340.471095 115.545475 327.153386 128.863184 C 313.840885 142.175685 295.783593 149.654852 276.950258 149.654852 L 70.997119 149.654852 C 52.168993 149.654852 34.1117 142.175685 20.793991 128.863184 C 7.48149 115.545475 0.0023231 97.488182 0.0023231 78.654848 L 0.0023231 70.998597 C 0.0023231 52.170471 7.48149 34.10797 20.793991 20.795469 C 34.1117 7.47776 52.168993 -0.00140734 70.997119 -0.00140734 Z M 70.997119 -0.00140734 " stroke="#000000" stroke-width="22" stroke-opacity="1" stroke-miterlimit="4"/></g></g><g fill="#ffffff" fill-opacity="0.9804"><g transform="translate(22.295849, 232.552074)"><g><path d="M 64.953125 0 L 43.65625 -36.765625 L 28.796875 -36.765625 L 28.796875 0 L 8.421875 0 L 8.421875 -107.234375 L 48.09375 -107.234375 C 56.0625 -107.234375 62.828125 -105.648438 68.390625 -102.484375 C 73.960938 -99.316406 78.175781 -95.078125 81.03125 -89.765625 C 83.894531 -84.453125 85.328125 -78.53125 85.328125 -72 C 85.328125 -64.851562 83.585938 -58.394531 80.109375 -52.625 C 76.640625 -46.851562 71.585938 -42.585938 64.953125 -39.828125 L 87.921875 0 Z M 28.796875 -87.625 L 28.796875 -56.21875 L 47.640625 -56.21875 C 52.742188 -56.21875 56.773438 -57.695312 59.734375 -60.65625 C 62.703125 -63.625 64.1875 -67.40625 64.1875 -72 C 64.1875 -76.59375 62.703125 -80.34375 59.734375 -83.25 C 56.773438 -86.164062 52.742188 -87.625 47.640625 -87.625 Z M 28.796875 -87.625 "/></g></g></g><g fill="#000000" fill-opacity="1"><g transform="translate(18.853997, 227.252087)"><g><path d="M 64.953125 0 L 43.65625 -36.765625 L 28.796875 -36.765625 L 28.796875 0 L 8.421875 0 L 8.421875 -107.234375 L 48.09375 -107.234375 C 56.0625 -107.234375 62.828125 -105.648438 68.390625 -102.484375 C 73.960938 -99.316406 78.175781 -95.078125 81.03125 -89.765625 C 83.894531 -84.453125 85.328125 -78.53125 85.328125 -72 C 85.328125 -64.851562 83.585938 -58.394531 80.109375 -52.625 C 76.640625 -46.851562 71.585938 -42.585938 64.953125 -39.828125 L 87.921875 0 Z M 28.796875 -87.625 L 28.796875 -56.21875 L 47.640625 -56.21875 C 52.742188 -56.21875 56.773438 -57.695312 59.734375 -60.65625 C 62.703125 -63.625 64.1875 -67.40625 64.1875 -72 C 64.1875 -76.59375 62.703125 -80.34375 59.734375 -83.25 C 56.773438 -86.164062 52.742188 -87.625 47.640625 -87.625 Z M 28.796875 -87.625 "/></g></g></g><g fill="#ffffff" fill-opacity="0.4"><g transform="translate(263.818288, 231.991477)"><g><path d="M 56.53125 -19.296875 C 62.445312 -19.296875 67.597656 -20.519531 71.984375 -22.96875 C 76.378906 -25.425781 79.90625 -28.800781 82.5625 -33.09375 L 100.953125 -23.890625 C 96.554688 -16.335938 90.53125 -10.265625 82.875 -5.671875 C 75.21875 -1.078125 66.4375 1.21875 56.53125 1.21875 C 48.863281 1.21875 41.835938 -0.15625 35.453125 -2.90625 C 29.078125 -5.664062 23.59375 -9.546875 19 -14.546875 C 14.40625 -19.554688 10.851562 -25.378906 8.34375 -32.015625 C 5.84375 -38.648438 4.59375 -45.800781 4.59375 -53.46875 C 4.59375 -61.125 5.84375 -68.269531 8.34375 -74.90625 C 10.851562 -81.539062 14.40625 -87.359375 19 -92.359375 C 23.59375 -97.367188 29.078125 -101.253906 35.453125 -104.015625 C 41.835938 -106.773438 48.863281 -108.15625 56.53125 -108.15625 C 66.4375 -108.15625 75.21875 -105.878906 82.875 -101.328125 C 90.53125 -96.785156 96.554688 -90.6875 100.953125 -83.03125 L 82.5625 -73.84375 C 79.90625 -78.125 76.378906 -81.515625 71.984375 -84.015625 C 67.597656 -86.523438 62.445312 -87.78125 56.53125 -87.78125 C 50.09375 -87.78125 44.550781 -86.269531 39.90625 -83.25 C 35.257812 -80.238281 31.679688 -76.15625 29.171875 -71 C 26.671875 -65.84375 25.421875 -60 25.421875 -53.46875 C 25.421875 -47.03125 26.671875 -41.234375 29.171875 -36.078125 C 31.679688 -30.921875 35.257812 -26.832031 39.90625 -23.8125 C 44.550781 -20.800781 50.09375 -19.296875 56.53125 -19.296875 Z M 56.53125 -19.296875 "/></g></g></g><g fill="#000000" fill-opacity="1"><g transform="translate(259.078903, 227.252087)"><g><path d="M 56.53125 -19.296875 C 62.445312 -19.296875 67.597656 -20.519531 71.984375 -22.96875 C 76.378906 -25.425781 79.90625 -28.800781 82.5625 -33.09375 L 100.953125 -23.890625 C 96.554688 -16.335938 90.53125 -10.265625 82.875 -5.671875 C 75.21875 -1.078125 66.4375 1.21875 56.53125 1.21875 C 48.863281 1.21875 41.835938 -0.15625 35.453125 -2.90625 C 29.078125 -5.664062 23.59375 -9.546875 19 -14.546875 C 14.40625 -19.554688 10.851562 -25.378906 8.34375 -32.015625 C 5.84375 -38.648438 4.59375 -45.800781 4.59375 -53.46875 C 4.59375 -61.125 5.84375 -68.269531 8.34375 -74.90625 C 10.851562 -81.539062 14.40625 -87.359375 19 -92.359375 C 23.59375 -97.367188 29.078125 -101.253906 35.453125 -104.015625 C 41.835938 -106.773438 48.863281 -108.15625 56.53125 -108.15625 C 66.4375 -108.15625 75.21875 -105.878906 82.875 -101.328125 C 90.53125 -96.785156 96.554688 -90.6875 100.953125 -83.03125 L 82.5625 -73.84375 C 79.90625 -78.125 76.378906 -81.515625 71.984375 -84.015625 C 67.597656 -86.523438 62.445312 -87.78125 56.53125 -87.78125 C 50.09375 -87.78125 44.550781 -86.269531 39.90625 -83.25 C 35.257812 -80.238281 31.679688 -76.15625 29.171875 -71 C 26.671875 -65.84375 25.421875 -60 25.421875 -53.46875 C 25.421875 -47.03125 26.671875 -41.234375 29.171875 -36.078125 C 31.679688 -30.921875 35.257812 -26.832031 39.90625 -23.8125 C 44.550781 -20.800781 50.09375 -19.296875 56.53125 -19.296875 Z M 56.53125 -19.296875 "/></g></g></g></svg>