<svg xmlns="http://www.w3.org/2000/svg" xmlns:xlink="http://www.w3.org/1999/xlink" width="500" zoomAndPan="magnify" viewBox="0 0 375 374.999991" height="500" preserveAspectRatio="xMidYMid meet" version="1.0"><defs><g/><clipPath id="7cb7c3ac9b"><path d="M 126.847656 37.5 L 247.390625 37.5 L 247.390625 309.1875 L 126.847656 309.1875 Z M 126.847656 37.5 " clip-rule="nonzero"/></clipPath><clipPath id="7921f8de2c"><path d="M 247.390625 90.75 L 247.390625 255.910156 C 247.390625 270.03125 241.78125 283.574219 231.792969 293.5625 C 221.808594 303.546875 208.261719 309.160156 194.140625 309.160156 L 180.097656 309.160156 C 165.976562 309.160156 152.433594 303.546875 142.445312 293.5625 C 132.460938 283.574219 126.847656 270.03125 126.847656 255.910156 L 126.847656 90.75 C 126.847656 76.628906 132.460938 63.085938 142.445312 53.097656 C 152.433594 43.113281 165.976562 37.5 180.097656 37.5 L 194.140625 37.5 C 208.261719 37.5 221.808594 43.113281 231.792969 53.097656 C 241.78125 63.085938 247.390625 76.628906 247.390625 90.75 Z M 247.390625 90.75 " clip-rule="nonzero"/></clipPath><clipPath id="a98ef5aded"><path d="M 126.640625 37.5 L 247.390625 37.5 L 247.390625 309 L 126.640625 309 Z M 126.640625 37.5 " clip-rule="nonzero"/></clipPath><clipPath id="69704acdbc"><path d="M 247.390625 90.75 L 247.390625 255.90625 C 247.390625 270.027344 241.777344 283.570312 231.792969 293.558594 C 221.808594 303.542969 208.261719 309.152344 194.140625 309.152344 L 180.101562 309.152344 C 165.976562 309.152344 152.433594 303.542969 142.445312 293.558594 C 132.460938 283.570312 126.851562 270.027344 126.851562 255.90625 L 126.851562 90.75 C 126.851562 76.628906 132.460938 63.085938 142.445312 53.097656 C 152.433594 43.113281 165.976562 37.5 180.101562 37.5 L 194.140625 37.5 C 208.261719 37.5 221.808594 43.113281 231.792969 53.097656 C 241.777344 63.085938 247.390625 76.628906 247.390625 90.75 Z M 247.390625 90.75 " clip-rule="nonzero"/></clipPath><clipPath id="f598a761c5"><path d="M 131.375 44.480469 L 243.621094 44.480469 L 243.621094 305.359375 L 131.375 305.359375 Z M 131.375 44.480469 " clip-rule="nonzero"/></clipPath><clipPath id="a3b38c4c53"><path d="M 243.621094 97.730469 L 243.621094 252.195312 C 243.621094 266.316406 238.011719 279.863281 228.023438 289.847656 C 218.039062 299.835938 204.492188 305.445312 190.371094 305.445312 L 184.625 305.445312 C 170.503906 305.445312 156.960938 299.835938 146.972656 289.847656 C 136.988281 279.863281 131.375 266.316406 131.375 252.195312 L 131.375 97.730469 C 131.375 83.605469 136.988281 70.0625 146.972656 60.074219 C 156.960938 50.089844 170.503906 44.480469 184.625 44.480469 L 190.371094 44.480469 C 204.492188 44.480469 218.039062 50.089844 228.023438 60.074219 C 238.011719 70.0625 243.621094 83.605469 243.621094 97.730469 Z M 243.621094 97.730469 " clip-rule="nonzero"/></clipPath><linearGradient x1="0.00623955" gradientTransform="matrix(0, 0.438452, -0.438452, 0, 243.620069, 44.475799)" y1="128" x2="595.006247" gradientUnits="userSpaceOnUse" y2="128" id="030539d70a"><stop stop-opacity="1" stop-color="rgb(0%, 0%, 0%)" offset="0"/><stop stop-opacity="1" stop-color="rgb(0.175476%, 0.175476%, 0.175476%)" offset="0.0078125"/><stop stop-opacity="1" stop-color="rgb(0.527954%, 0.527954%, 0.527954%)" offset="0.015625"/><stop stop-opacity="1" stop-color="rgb(0.878906%, 0.878906%, 0.878906%)" offset="0.0234375"/><stop stop-opacity="1" stop-color="rgb(1.231384%, 1.231384%, 1.231384%)" offset="0.03125"/><stop stop-opacity="1" stop-color="rgb(1.583862%, 1.583862%, 1.583862%)" offset="0.0390625"/><stop stop-opacity="1" stop-color="rgb(1.93634%, 1.93634%, 1.93634%)" offset="0.046875"/><stop stop-opacity="1" stop-color="rgb(2.288818%, 2.288818%, 2.288818%)" offset="0.0546875"/><stop stop-opacity="1" stop-color="rgb(2.641296%, 2.641296%, 2.641296%)" offset="0.0625"/><stop stop-opacity="1" stop-color="rgb(2.992249%, 2.992249%, 2.992249%)" offset="0.0703125"/><stop stop-opacity="1" stop-color="rgb(3.344727%, 3.344727%, 3.344727%)" offset="0.078125"/><stop stop-opacity="1" stop-color="rgb(3.697205%, 3.697205%, 3.697205%)" offset="0.0859375"/><stop stop-opacity="1" stop-color="rgb(4.049683%, 4.049683%, 4.049683%)" offset="0.09375"/><stop stop-opacity="1" stop-color="rgb(4.402161%, 4.402161%, 4.402161%)" offset="0.101562"/><stop stop-opacity="1" stop-color="rgb(4.754639%, 4.754639%, 4.754639%)" offset="0.109375"/><stop stop-opacity="1" stop-color="rgb(5.105591%, 5.105591%, 5.105591%)" offset="0.117187"/><stop stop-opacity="1" stop-color="rgb(5.458069%, 5.458069%, 5.458069%)" offset="0.125"/><stop stop-opacity="1" stop-color="rgb(5.810547%, 5.810547%, 5.810547%)" offset="0.132812"/><stop stop-opacity="1" stop-color="rgb(6.163025%, 6.163025%, 6.163025%)" offset="0.140625"/><stop stop-opacity="1" stop-color="rgb(6.515503%, 6.515503%, 6.515503%)" offset="0.148438"/><stop stop-opacity="1" stop-color="rgb(6.867981%, 6.867981%, 6.867981%)" offset="0.15625"/><stop stop-opacity="1" stop-color="rgb(7.218933%, 7.218933%, 7.218933%)" offset="0.164062"/><stop stop-opacity="1" stop-color="rgb(7.571411%, 7.571411%, 7.571411%)" offset="0.171875"/><stop stop-opacity="1" stop-color="rgb(7.923889%, 7.923889%, 7.923889%)" offset="0.179687"/><stop stop-opacity="1" stop-color="rgb(8.276367%, 8.276367%, 8.276367%)" offset="0.1875"/><stop stop-opacity="1" stop-color="rgb(8.628845%, 8.628845%, 8.628845%)" offset="0.195313"/><stop stop-opacity="1" stop-color="rgb(8.981323%, 8.981323%, 8.981323%)" offset="0.203125"/><stop stop-opacity="1" stop-color="rgb(9.333801%, 9.333801%, 9.333801%)" offset="0.210938"/><stop stop-opacity="1" stop-color="rgb(9.684753%, 9.684753%, 9.684753%)" offset="0.21875"/><stop stop-opacity="1" stop-color="rgb(10.037231%, 10.037231%, 10.037231%)" offset="0.226562"/><stop stop-opacity="1" stop-color="rgb(10.389709%, 10.389709%, 10.389709%)" offset="0.234375"/><stop stop-opacity="1" stop-color="rgb(10.742188%, 10.742188%, 10.742188%)" offset="0.242188"/><stop stop-opacity="1" stop-color="rgb(11.094666%, 11.094666%, 11.094666%)" offset="0.25"/><stop stop-opacity="1" stop-color="rgb(11.447144%, 11.447144%, 11.447144%)" offset="0.257812"/><stop stop-opacity="1" stop-color="rgb(11.798096%, 11.798096%, 11.798096%)" offset="0.265625"/><stop stop-opacity="1" stop-color="rgb(12.150574%, 12.150574%, 12.150574%)" offset="0.273438"/><stop stop-opacity="1" stop-color="rgb(12.503052%, 12.503052%, 12.503052%)" offset="0.28125"/><stop stop-opacity="1" stop-color="rgb(12.85553%, 12.85553%, 12.85553%)" offset="0.289062"/><stop stop-opacity="1" stop-color="rgb(13.208008%, 13.208008%, 13.208008%)" offset="0.296875"/><stop stop-opacity="1" stop-color="rgb(13.560486%, 13.560486%, 13.560486%)" offset="0.304688"/><stop stop-opacity="1" stop-color="rgb(13.911438%, 13.911438%, 13.911438%)" offset="0.3125"/><stop stop-opacity="1" stop-color="rgb(14.263916%, 14.263916%, 14.263916%)" offset="0.320312"/><stop stop-opacity="1" stop-color="rgb(14.616394%, 14.616394%, 14.616394%)" offset="0.328125"/><stop stop-opacity="1" stop-color="rgb(14.968872%, 14.968872%, 14.968872%)" offset="0.335937"/><stop stop-opacity="1" stop-color="rgb(15.32135%, 15.32135%, 15.32135%)" offset="0.34375"/><stop stop-opacity="1" stop-color="rgb(15.673828%, 15.673828%, 15.673828%)" offset="0.351562"/><stop stop-opacity="1" stop-color="rgb(16.02478%, 16.02478%, 16.02478%)" offset="0.359375"/><stop stop-opacity="1" stop-color="rgb(16.377258%, 16.377258%, 16.377258%)" offset="0.367188"/><stop stop-opacity="1" stop-color="rgb(16.729736%, 16.729736%, 16.729736%)" offset="0.375"/><stop stop-opacity="1" stop-color="rgb(17.082214%, 17.082214%, 17.082214%)" offset="0.382812"/><stop stop-opacity="1" stop-color="rgb(17.434692%, 17.434692%, 17.434692%)" offset="0.390625"/><stop stop-opacity="1" stop-color="rgb(17.78717%, 17.78717%, 17.78717%)" offset="0.398438"/><stop stop-opacity="1" stop-color="rgb(18.138123%, 18.138123%, 18.138123%)" offset="0.40625"/><stop stop-opacity="1" stop-color="rgb(18.490601%, 18.490601%, 18.490601%)" offset="0.414063"/><stop stop-opacity="1" stop-color="rgb(18.843079%, 18.843079%, 18.843079%)" offset="0.421875"/><stop stop-opacity="1" stop-color="rgb(19.195557%, 19.195557%, 19.195557%)" offset="0.429688"/><stop stop-opacity="1" stop-color="rgb(19.548035%, 19.548035%, 19.548035%)" offset="0.4375"/><stop stop-opacity="1" stop-color="rgb(19.900513%, 19.900513%, 19.900513%)" offset="0.445312"/><stop stop-opacity="1" stop-color="rgb(20.251465%, 20.251465%, 20.251465%)" offset="0.453125"/><stop stop-opacity="1" stop-color="rgb(20.603943%, 20.603943%, 20.603943%)" offset="0.460938"/><stop stop-opacity="1" stop-color="rgb(20.956421%, 20.956421%, 20.956421%)" offset="0.46875"/><stop stop-opacity="1" stop-color="rgb(21.308899%, 21.308899%, 21.308899%)" offset="0.476562"/><stop stop-opacity="1" stop-color="rgb(21.661377%, 21.661377%, 21.661377%)" offset="0.484375"/><stop stop-opacity="1" stop-color="rgb(22.013855%, 22.013855%, 22.013855%)" offset="0.492188"/><stop stop-opacity="1" stop-color="rgb(22.364807%, 22.364807%, 22.364807%)" offset="0.5"/><stop stop-opacity="1" stop-color="rgb(22.717285%, 22.717285%, 22.717285%)" offset="0.507812"/><stop stop-opacity="1" stop-color="rgb(23.069763%, 23.069763%, 23.069763%)" offset="0.515625"/><stop stop-opacity="1" stop-color="rgb(23.422241%, 23.422241%, 23.422241%)" offset="0.523437"/><stop stop-opacity="1" stop-color="rgb(23.774719%, 23.774719%, 23.774719%)" offset="0.53125"/><stop stop-opacity="1" stop-color="rgb(24.127197%, 24.127197%, 24.127197%)" offset="0.539062"/><stop stop-opacity="1" stop-color="rgb(24.478149%, 24.478149%, 24.478149%)" offset="0.546875"/><stop stop-opacity="1" stop-color="rgb(24.830627%, 24.830627%, 24.830627%)" offset="0.554687"/><stop stop-opacity="1" stop-color="rgb(25.183105%, 25.183105%, 25.183105%)" offset="0.5625"/><stop stop-opacity="1" stop-color="rgb(25.535583%, 25.535583%, 25.535583%)" offset="0.570312"/><stop stop-opacity="1" stop-color="rgb(25.888062%, 25.888062%, 25.888062%)" offset="0.578125"/><stop stop-opacity="1" stop-color="rgb(26.24054%, 26.24054%, 26.24054%)" offset="0.585937"/><stop stop-opacity="1" stop-color="rgb(26.591492%, 26.591492%, 26.591492%)" offset="0.59375"/><stop stop-opacity="1" stop-color="rgb(26.94397%, 26.94397%, 26.94397%)" offset="0.601562"/><stop stop-opacity="1" stop-color="rgb(27.296448%, 27.296448%, 27.296448%)" offset="0.609375"/><stop stop-opacity="1" stop-color="rgb(27.648926%, 27.648926%, 27.648926%)" offset="0.617187"/><stop stop-opacity="1" stop-color="rgb(28.001404%, 28.001404%, 28.001404%)" offset="0.625"/><stop stop-opacity="1" stop-color="rgb(28.353882%, 28.353882%, 28.353882%)" offset="0.632812"/><stop stop-opacity="1" stop-color="rgb(28.704834%, 28.704834%, 28.704834%)" offset="0.640625"/><stop stop-opacity="1" stop-color="rgb(29.057312%, 29.057312%, 29.057312%)" offset="0.648437"/><stop stop-opacity="1" stop-color="rgb(29.40979%, 29.40979%, 29.40979%)" offset="0.65625"/><stop stop-opacity="1" stop-color="rgb(29.762268%, 29.762268%, 29.762268%)" offset="0.664062"/><stop stop-opacity="1" stop-color="rgb(30.114746%, 30.114746%, 30.114746%)" offset="0.671875"/><stop stop-opacity="1" stop-color="rgb(30.467224%, 30.467224%, 30.467224%)" offset="0.679687"/><stop stop-opacity="1" stop-color="rgb(30.818176%, 30.818176%, 30.818176%)" offset="0.6875"/><stop stop-opacity="1" stop-color="rgb(31.170654%, 31.170654%, 31.170654%)" offset="0.695312"/><stop stop-opacity="1" stop-color="rgb(31.523132%, 31.523132%, 31.523132%)" offset="0.703125"/><stop stop-opacity="1" stop-color="rgb(31.87561%, 31.87561%, 31.87561%)" offset="0.710937"/><stop stop-opacity="1" stop-color="rgb(32.228088%, 32.228088%, 32.228088%)" offset="0.71875"/><stop stop-opacity="1" stop-color="rgb(32.580566%, 32.580566%, 32.580566%)" offset="0.726562"/><stop stop-opacity="1" stop-color="rgb(32.931519%, 32.931519%, 32.931519%)" offset="0.734375"/><stop stop-opacity="1" stop-color="rgb(33.283997%, 33.283997%, 33.283997%)" offset="0.742188"/><stop stop-opacity="1" stop-color="rgb(33.636475%, 33.636475%, 33.636475%)" offset="0.75"/><stop stop-opacity="1" stop-color="rgb(33.988953%, 33.988953%, 33.988953%)" offset="0.757812"/><stop stop-opacity="1" stop-color="rgb(34.341431%, 34.341431%, 34.341431%)" offset="0.765625"/><stop stop-opacity="1" stop-color="rgb(34.693909%, 34.693909%, 34.693909%)" offset="0.773438"/><stop stop-opacity="1" stop-color="rgb(35.044861%, 35.044861%, 35.044861%)" offset="0.78125"/><stop stop-opacity="1" stop-color="rgb(35.397339%, 35.397339%, 35.397339%)" offset="0.789063"/><stop stop-opacity="1" stop-color="rgb(35.749817%, 35.749817%, 35.749817%)" offset="0.796875"/><stop stop-opacity="1" stop-color="rgb(36.102295%, 36.102295%, 36.102295%)" offset="0.804688"/><stop stop-opacity="1" stop-color="rgb(36.454773%, 36.454773%, 36.454773%)" offset="0.8125"/><stop stop-opacity="1" stop-color="rgb(36.807251%, 36.807251%, 36.807251%)" offset="0.820313"/><stop stop-opacity="1" stop-color="rgb(37.158203%, 37.158203%, 37.158203%)" offset="0.828125"/><stop stop-opacity="1" stop-color="rgb(37.510681%, 37.510681%, 37.510681%)" offset="0.835938"/><stop stop-opacity="1" stop-color="rgb(37.863159%, 37.863159%, 37.863159%)" offset="0.84375"/><stop stop-opacity="1" stop-color="rgb(38.215637%, 38.215637%, 38.215637%)" offset="0.851563"/><stop stop-opacity="1" stop-color="rgb(38.568115%, 38.568115%, 38.568115%)" offset="0.859375"/><stop stop-opacity="1" stop-color="rgb(38.920593%, 38.920593%, 38.920593%)" offset="0.867188"/><stop stop-opacity="1" stop-color="rgb(39.271545%, 39.271545%, 39.271545%)" offset="0.875"/><stop stop-opacity="1" stop-color="rgb(39.624023%, 39.624023%, 39.624023%)" offset="0.882813"/><stop stop-opacity="1" stop-color="rgb(39.976501%, 39.976501%, 39.976501%)" offset="0.890625"/><stop stop-opacity="1" stop-color="rgb(40.328979%, 40.328979%, 40.328979%)" offset="0.898438"/><stop stop-opacity="1" stop-color="rgb(40.681458%, 40.681458%, 40.681458%)" offset="0.90625"/><stop stop-opacity="1" stop-color="rgb(41.033936%, 41.033936%, 41.033936%)" offset="0.914063"/><stop stop-opacity="1" stop-color="rgb(41.384888%, 41.384888%, 41.384888%)" offset="0.921875"/><stop stop-opacity="1" stop-color="rgb(41.737366%, 41.737366%, 41.737366%)" offset="0.929688"/><stop stop-opacity="1" stop-color="rgb(42.089844%, 42.089844%, 42.089844%)" offset="0.9375"/><stop stop-opacity="1" stop-color="rgb(42.442322%, 42.442322%, 42.442322%)" offset="0.945313"/><stop stop-opacity="1" stop-color="rgb(42.7948%, 42.7948%, 42.7948%)" offset="0.953125"/><stop stop-opacity="1" stop-color="rgb(43.147278%, 43.147278%, 43.147278%)" offset="0.960938"/><stop stop-opacity="1" stop-color="rgb(43.49823%, 43.49823%, 43.49823%)" offset="0.96875"/><stop stop-opacity="1" stop-color="rgb(43.850708%, 43.850708%, 43.850708%)" offset="0.976563"/><stop stop-opacity="1" stop-color="rgb(44.203186%, 44.203186%, 44.203186%)" offset="0.984375"/><stop stop-opacity="1" stop-color="rgb(44.555664%, 44.555664%, 44.555664%)" offset="0.992188"/><stop stop-opacity="1" stop-color="rgb(44.908142%, 44.908142%, 44.908142%)" offset="1"/></linearGradient><clipPath id="a489a41666"><path d="M 131.121094 44.480469 L 243.621094 44.480469 L 243.621094 305.441406 L 131.121094 305.441406 Z M 131.121094 44.480469 " clip-rule="nonzero"/></clipPath><clipPath id="da6dc633d5"><path d="M 243.621094 97.730469 L 243.621094 252.191406 C 243.621094 266.316406 238.011719 279.859375 228.023438 289.847656 C 218.039062 299.832031 204.492188 305.441406 190.371094 305.441406 L 184.628906 305.441406 C 170.503906 305.441406 156.960938 299.832031 146.972656 289.847656 C 136.988281 279.859375 131.378906 266.316406 131.378906 252.191406 L 131.378906 97.730469 C 131.378906 83.605469 136.988281 70.0625 146.972656 60.074219 C 156.960938 50.089844 170.503906 44.480469 184.628906 44.480469 L 190.371094 44.480469 C 204.492188 44.480469 218.039062 50.089844 228.023438 60.074219 C 238.011719 70.0625 243.621094 83.605469 243.621094 97.730469 Z M 243.621094 97.730469 " clip-rule="nonzero"/></clipPath></defs><g clip-path="url(#7cb7c3ac9b)"><g clip-path="url(#7921f8de2c)"><path fill="#ffffff" d="M 247.390625 37.5 L 247.390625 309.1875 L 126.847656 309.1875 L 126.847656 37.5 Z M 247.390625 37.5 " fill-opacity="1" fill-rule="nonzero"/></g></g><g clip-path="url(#a98ef5aded)"><g clip-path="url(#69704acdbc)"><path stroke-linecap="butt" transform="matrix(0, 0.75, -0.75, 0, 247.389216, 37.501656)" fill="none" stroke-linejoin="miter" d="M 70.997792 -0.00187833 L 291.206125 -0.00187833 C 310.03425 -0.00187833 328.091542 7.482497 341.40925 20.794997 C 354.72175 34.107497 362.200917 52.169997 362.200917 70.998122 L 362.200917 89.716872 C 362.200917 108.550205 354.72175 126.607497 341.40925 139.925205 C 328.091542 153.237705 310.03425 160.716872 291.206125 160.716872 L 70.997792 160.716872 C 52.169667 160.716872 34.112375 153.237705 20.794666 139.925205 C 7.482166 126.607497 -0.00220856 108.550205 -0.00220856 89.716872 L -0.00220856 70.998122 C -0.00220856 52.169997 7.482166 34.107497 20.794666 20.794997 C 34.112375 7.482497 52.169667 -0.00187833 70.997792 -0.00187833 Z M 70.997792 -0.00187833 " stroke="#f43f5e" stroke-width="22" stroke-opacity="1" stroke-miterlimit="4"/></g></g><g clip-path="url(#f598a761c5)"><g clip-path="url(#a3b38c4c53)"><path fill="url(#030539d70a)" d="M 243.621094 44.480469 L 131.375 44.480469 L 131.375 305.359375 L 243.621094 305.359375 Z M 243.621094 44.480469 " fill-rule="nonzero"/></g></g><g clip-path="url(#a489a41666)"><g clip-path="url(#da6dc633d5)"><path stroke-linecap="butt" transform="matrix(0, 0.75, -0.75, 0, 243.620072, 44.479418)" fill="none" stroke-linejoin="miter" d="M 71.001406 -0.00136273 L 276.949336 -0.00136273 C 295.782671 -0.00136273 313.839963 7.477804 327.157673 20.795514 C 340.470174 34.108015 347.949341 52.170516 347.949341 70.998642 L 347.949341 78.654892 C 347.949341 97.488227 340.470174 115.54552 327.157673 128.863229 C 313.839963 142.17573 295.782671 149.654897 276.949336 149.654897 L 71.001406 149.654897 C 52.168071 149.654897 34.110778 142.17573 20.793069 128.863229 C 7.480568 115.54552 0.00140116 97.488227 0.00140116 78.654892 L 0.00140116 70.998642 C 0.00140116 52.170516 7.480568 34.108015 20.793069 20.795514 C 34.110778 7.477804 52.168071 -0.00136273 71.001406 -0.00136273 Z M 71.001406 -0.00136273 " stroke="#000000" stroke-width="22" stroke-opacity="1" stroke-miterlimit="4"/></g></g><path stroke-linecap="butt" transform="matrix(1.739779, 0, 0, 1.739779, -58.892368, 67.192438)" fill="none" stroke-linejoin="miter" d="M 82.026965 92.001045 L 69.774599 70.868689 L 61.240378 70.868689 L 61.240378 92.001045 L 49.524629 92.001045 L 49.524629 30.368749 L 72.331946 30.368749 C 76.919006 30.368749 80.810035 31.280323 84.005036 33.098981 C 87.200036 34.919884 89.615932 37.355988 91.248234 40.407292 C 92.896252 43.460841 93.720262 46.86465 93.720262 50.618719 C 93.720262 54.73203 92.725613 58.443439 90.73407 61.755192 C 88.740282 65.064701 85.83941 67.514276 82.026965 69.106163 L 95.226829 92.001045 Z M 61.240378 41.633202 L 61.240378 59.689556 L 72.073742 59.689556 C 75.012783 59.689556 77.325397 58.838604 79.018321 57.132209 C 80.72247 55.428059 81.575668 53.256896 81.575668 50.618719 C 81.575668 47.982788 80.72247 45.825096 79.018321 44.147889 C 77.325397 42.472928 75.012783 41.633202 72.073742 41.633202 Z M 61.240378 41.633202 " stroke="#f43f5e" stroke-width="6.604298" stroke-opacity="1" stroke-miterlimit="4"/><g fill="#000000" fill-opacity="1"><g transform="translate(18.853997, 227.252087)"><g><path d="M 64.953125 0 L 43.65625 -36.765625 L 28.796875 -36.765625 L 28.796875 0 L 8.421875 0 L 8.421875 -107.234375 L 48.09375 -107.234375 C 56.0625 -107.234375 62.828125 -105.648438 68.390625 -102.484375 C 73.960938 -99.316406 78.175781 -95.078125 81.03125 -89.765625 C 83.894531 -84.453125 85.328125 -78.53125 85.328125 -72 C 85.328125 -64.851562 83.585938 -58.394531 80.109375 -52.625 C 76.640625 -46.851562 71.585938 -42.585938 64.953125 -39.828125 L 87.921875 0 Z M 28.796875 -87.625 L 28.796875 -56.21875 L 47.640625 -56.21875 C 52.742188 -56.21875 56.773438 -57.695312 59.734375 -60.65625 C 62.703125 -63.625 64.1875 -67.40625 64.1875 -72 C 64.1875 -76.59375 62.703125 -80.34375 59.734375 -83.25 C 56.773438 -86.164062 52.742188 -87.625 47.640625 -87.625 Z M 28.796875 -87.625 "/></g></g></g><path stroke-linecap="butt" transform="matrix(1.739779, 0, 0, 1.739779, 259.078903, 67.192438)" fill="none" stroke-linejoin="miter" d="M 32.481682 80.907232 C 35.892227 80.907232 38.858211 80.204467 41.381879 78.801181 C 43.903302 77.382179 45.930769 75.440032 47.46428 72.97474 L 58.019231 78.264565 C 55.497808 82.606891 52.035622 86.102756 47.637164 88.754404 C 43.236461 91.390336 38.184634 92.708301 32.481682 92.708301 C 28.080979 92.708301 24.048497 91.920216 20.379748 90.344046 C 16.710999 88.754404 13.556413 86.518129 10.920482 83.637464 C 8.282305 80.7568 6.241367 77.411367 4.793176 73.598922 C 3.360702 69.786476 2.644465 65.673165 2.644465 61.258991 C 2.644465 56.860533 3.360702 52.753958 4.793176 48.941512 C 6.241367 45.131312 8.282305 41.783634 10.920482 38.90297 C 13.556413 36.022305 16.710999 33.795011 20.379748 32.218841 C 24.048497 30.626954 28.080979 29.832133 32.481682 29.832133 C 38.184634 29.832133 43.236461 31.143363 47.637164 33.765822 C 52.035622 36.374811 55.497808 39.877411 58.019231 44.278114 L 47.46428 49.565694 C 45.930769 47.100402 43.903302 45.151519 41.381879 43.719045 C 38.858211 42.270855 35.892227 41.547882 32.481682 41.547882 C 28.783744 41.547882 25.602215 42.414551 22.937095 44.147889 C 20.271976 45.883473 18.215321 48.232011 16.76713 51.200241 C 15.334656 54.152753 14.618419 57.504922 14.618419 61.258991 C 14.618419 64.972645 15.334656 68.311342 16.76713 71.277326 C 18.215321 74.229839 20.271976 76.571641 22.937095 78.307225 C 25.602215 80.040563 28.783744 80.907232 32.481682 80.907232 Z M 32.481682 80.907232 " stroke="#f43f5e" stroke-width="6.604298" stroke-opacity="1" stroke-miterlimit="4"/><g fill="#000000" fill-opacity="1"><g transform="translate(259.078903, 227.252087)"><g><path d="M 56.53125 -19.296875 C 62.445312 -19.296875 67.597656 -20.519531 71.984375 -22.96875 C 76.378906 -25.425781 79.90625 -28.800781 82.5625 -33.09375 L 100.953125 -23.890625 C 96.554688 -16.335938 90.53125 -10.265625 82.875 -5.671875 C 75.21875 -1.078125 66.4375 1.21875 56.53125 1.21875 C 48.863281 1.21875 41.835938 -0.15625 35.453125 -2.90625 C 29.078125 -5.664062 23.59375 -9.546875 19 -14.546875 C 14.40625 -19.554688 10.851562 -25.378906 8.34375 -32.015625 C 5.84375 -38.648438 4.59375 -45.800781 4.59375 -53.46875 C 4.59375 -61.125 5.84375 -68.269531 8.34375 -74.90625 C 10.851562 -81.539062 14.40625 -87.359375 19 -92.359375 C 23.59375 -97.367188 29.078125 -101.253906 35.453125 -104.015625 C 41.835938 -106.773438 48.863281 -108.15625 56.53125 -108.15625 C 66.4375 -108.15625 75.21875 -105.878906 82.875 -101.328125 C 90.53125 -96.785156 96.554688 -90.6875 100.953125 -83.03125 L 82.5625 -73.84375 C 79.90625 -78.125 76.378906 -81.515625 71.984375 -84.015625 C 67.597656 -86.523438 62.445312 -87.78125 56.53125 -87.78125 C 50.09375 -87.78125 44.550781 -86.269531 39.90625 -83.25 C 35.257812 -80.238281 31.679688 -76.15625 29.171875 -71 C 26.671875 -65.84375 25.421875 -60 25.421875 -53.46875 C 25.421875 -47.03125 26.671875 -41.234375 29.171875 -36.078125 C 31.679688 -30.921875 35.257812 -26.832031 39.90625 -23.8125 C 44.550781 -20.800781 50.09375 -19.296875 56.53125 -19.296875 Z M 56.53125 -19.296875 "/></g></g></g></svg>